<svg xmlns="http://www.w3.org/2000/svg" width="28" height="40" viewBox="0 0 14 20"><path fill="#fff" fill-rule="evenodd" d="M54.01 1930.97a4.968 4.968 0 0 1-3.532-1.46c-3.145-3.141-.888-8.515 3.532-8.515 4.417 0 6.68 5.371 3.533 8.515a4.968 4.968 0 0 1-3.533 1.46m4.931-.05c4.42-4.413 1.236-11.92-4.934-11.92-6.156 0-9.378 7.507-4.956 11.92 1.11 1.11 2.933 1.76 3.932 1.966v2.124h-2.997v1.995h2.997V1939h1.998v-1.995h2.997v-1.995h-2.997v-2.124c1.998-.207 2.85-.857 3.96-1.965" transform="translate(-47 -1919)"/></svg>